<?xml version="1.0" standalone="no"?>
<!DOCTYPE svg PUBLIC "-//W3C//DTD SVG 20010904//EN"
 "http://www.w3.org/TR/2001/REC-SVG-20010904/DTD/svg10.dtd">
<svg version="1.0" xmlns="http://www.w3.org/2000/svg"
 width="1024.000000pt" height="1024.000000pt" viewBox="0 0 1024.000000 1024.000000"
 preserveAspectRatio="xMidYMid meet">

<g transform="translate(0.000000,1024.000000) scale(0.100000,-0.100000)"
fill="#000000" stroke="none">
<path d="M4420 7738 c-44 -31 -52 -50 -106 -233 -25 -88 -49 -164 -53 -168 -4
-4 -71 -34 -149 -67 -78 -32 -206 -92 -283 -132 l-141 -72 -41 23 c-23 14
-112 71 -198 128 -158 104 -185 114 -231 92 -13 -6 -93 -87 -178 -180 -85 -93
-192 -208 -237 -256 -102 -109 -117 -146 -85 -207 12 -22 76 -95 142 -160 66
-66 120 -124 120 -129 0 -5 -25 -68 -55 -141 -30 -72 -82 -201 -115 -286 -34
-85 -65 -159 -70 -164 -5 -5 -99 -28 -210 -51 -175 -37 -206 -46 -229 -69
l-26 -26 0 -341 0 -341 30 -27 c23 -20 57 -33 130 -50 55 -13 149 -35 210 -50
l109 -26 113 -280 c62 -154 113 -288 113 -298 0 -10 -47 -103 -105 -207 -88
-157 -105 -195 -105 -231 0 -43 2 -45 218 -262 119 -120 230 -225 246 -234 40
-21 84 -12 142 30 27 19 107 73 178 120 l128 86 117 -59 c159 -80 195 -94 421
-162 42 -12 45 -16 53 -58 27 -143 91 -388 105 -404 41 -44 55 -46 392 -46
351 0 376 3 403 57 8 15 29 118 46 228 18 110 36 209 40 220 6 14 36 29 97 50
178 59 371 171 563 325 l99 80 208 0 209 0 127 -127 128 -128 345 -3 345 -3 0
136 0 135 -267 0 -267 0 -147 145 -147 145 -379 0 -380 0 -44 -31 c-169 -117
-329 -202 -471 -248 -260 -85 -613 -93 -900 -20 -473 120 -848 454 -1028 916
-150 386 -148 850 5 1212 176 416 533 741 967 880 158 50 296 73 483 78 287 9
513 -33 808 -147 86 -33 167 -60 180 -60 51 0 100 66 157 209 27 70 14 112
-48 152 -85 54 -365 188 -497 238 -71 27 -133 55 -137 63 -4 7 -26 94 -48 193
-23 99 -48 190 -56 203 -8 13 -29 32 -47 42 -30 19 -52 20 -348 20 -311 0
-317 0 -349 -22z"/>
<path d="M6432 6676 l-327 -325 -622 -1 c-571 0 -630 -2 -736 -20 -252 -43
-448 -142 -620 -314 -148 -148 -248 -325 -291 -512 -102 -455 133 -935 562
-1148 205 -102 340 -126 710 -126 l275 0 91 88 c50 48 114 109 143 135 l52 47
844 0 c642 0 846 3 855 12 9 9 12 75 12 235 l0 223 -130 0 -130 0 0 -90 0 -90
-798 0 -798 0 -31 -23 c-17 -12 -79 -71 -139 -130 l-108 -107 -170 0 c-195 0
-301 17 -431 69 -306 123 -488 401 -472 720 8 173 70 311 199 447 119 125 282
214 471 257 87 19 126 21 732 24 352 2 651 6 665 9 15 3 136 116 308 287 l282
282 153 5 152 5 0 180 0 180 -188 3 -187 2 -328 -324z"/>
<path d="M7354 6987 c-2 -7 -3 -114 -2 -237 l3 -225 224 -3 c173 -2 226 1 233
10 13 22 10 442 -4 456 -18 18 -447 17 -454 -1z"/>
<path d="M7357 5683 c-4 -3 -7 -46 -7 -95 l0 -88 -975 0 c-1096 0 -1025 5
-1046 -72 -6 -24 -9 -74 -7 -111 3 -61 7 -72 31 -93 l28 -24 1203 0 c1153 0
1204 1 1219 18 24 27 25 416 1 450 -15 22 -19 22 -228 22 -117 0 -216 -3 -219
-7z"/>
<path d="M7030 3995 l0 -85 175 0 175 0 0 85 0 85 -175 0 -175 0 0 -85z"/>
</g>
</svg>
